<svg width="20" height="20" viewBox="0 0 20 20" fill="none" xmlns="http://www.w3.org/2000/svg">
<path d="M3.90625 12.6277H6.25C6.68148 12.6277 7.03125 12.2779 7.03125 11.8464C7.03125 11.4149 6.68148 11.0652 6.25 11.0652H3.90625C3.47477 11.0652 3.125 11.4149 3.125 11.8464C3.125 12.2779 3.47477 12.6277 3.90625 12.6277ZM3.90625 9.50266H6.25C6.68148 9.50266 7.03125 9.15289 7.03125 8.72141C7.03125 8.28992 6.68148 7.94016 6.25 7.94016H3.90625C3.47477 7.94016 3.125 8.28992 3.125 8.72141C3.125 9.15289 3.47477 9.50266 3.90625 9.50266ZM8.49379 11.8464C8.49379 12.2779 8.84355 12.6277 9.27504 12.6277C10.9087 12.6277 12.4445 11.9915 13.5997 10.8363L19.313 5.1225C20.2289 4.2066 20.2291 2.72398 19.313 1.80793C18.3992 0.894102 16.9123 0.894102 15.9984 1.80793L10.2851 7.52176C9.13 8.67695 8.49379 10.2128 8.49379 11.8464ZM17.1033 2.91281C17.4079 2.6082 17.9036 2.6082 18.2081 2.91281C18.5134 3.21805 18.5136 3.7123 18.2081 4.01766L12.4948 9.73148C11.8417 10.3846 11.0251 10.8149 10.1373 10.9841C10.3066 10.0964 10.7369 9.27977 11.3899 8.62664L17.1033 2.91281Z" fill="#444950"/>
<path d="M2.34375 18.8774C2.92016 18.8778 3.47642 18.6654 3.90594 18.281L4.9859 17.3149H12.9688C15.1227 17.3149 16.875 15.5626 16.875 13.4087V11.6562C16.875 11.2247 16.5252 10.875 16.0938 10.875C15.6623 10.875 15.3125 11.2247 15.3125 11.6562V13.4087C15.3125 14.701 14.2611 15.7524 12.9688 15.7524H4.6875C4.49532 15.7524 4.30988 15.8233 4.16664 15.9514L2.86438 17.1163C2.72121 17.2443 2.53583 17.3151 2.34375 17.3149C1.91297 17.3149 1.5625 16.9645 1.5625 16.5337V7.15869C1.5625 5.86635 2.61391 4.81494 3.90625 4.81494H10.4589C10.8904 4.81494 11.2402 4.46518 11.2402 4.03369C11.2402 3.60221 10.8904 3.25244 10.4589 3.25244H3.90625C1.7523 3.25244 0 5.00479 0 7.15869V16.5337C0 17.826 1.05141 18.8774 2.34375 18.8774Z" fill="#444950"/>
</svg>
