<svg width="20" height="20" viewBox="0 0 20 20" fill="none" xmlns="http://www.w3.org/2000/svg">
<path d="M7.84961 13.7412H12.1382" stroke="#1141CB" stroke-width="1.3" stroke-linecap="round" stroke-linejoin="round"/>
<path d="M9.98816 4.22874C10.2137 4.2293 10.434 4.29685 10.6211 4.42282L15.2068 7.48184C15.3843 7.60333 15.529 7.76686 15.6279 7.95784C15.7268 8.14883 15.7769 8.36133 15.7738 8.57639L15.7678 14.4849C15.7671 15.1939 15.2288 15.7708 14.5678 15.7708H5.42578C5.27328 15.7701 5.12244 15.7391 4.98199 15.6797C4.84155 15.6202 4.71428 15.5335 4.60758 15.4246C4.48476 15.3006 4.38778 15.1534 4.32224 14.9916C4.2567 14.8299 4.22391 14.6567 4.22578 14.4821L4.23178 8.57114C4.22917 8.35709 4.27928 8.14569 4.37771 7.95559C4.47614 7.76549 4.61985 7.60255 4.79615 7.48114L9.3524 4.42452C9.54009 4.29743 9.76149 4.22928 9.98816 4.22874ZM9.98803 2.92871C9.50344 2.92919 9.02999 3.07411 8.62815 3.34495L4.07187 6.40158C3.71898 6.64218 3.43051 6.96568 3.23174 7.34371C3.03296 7.72174 2.92997 8.14277 2.93178 8.56987L2.92578 14.4809C2.92434 15.9108 4.04406 17.0708 5.42578 17.0708H14.5678C15.9475 17.0708 17.0663 15.9141 17.0678 14.4863L17.0738 8.57775C17.0765 8.14863 16.9734 7.72547 16.7736 7.3457C16.5738 6.96592 16.2834 6.64126 15.9283 6.40043L11.3425 3.34143C10.9418 3.07282 10.4704 2.92916 9.98803 2.92871Z" fill="#1141CB"/>
</svg>
