<svg width="20" height="20" viewBox="0 0 20 20" fill="none" xmlns="http://www.w3.org/2000/svg">
<g clip-path="url(#clip0_7495_4591)">
<path d="M10 6.6665V9.99984L11.25 11.2498" stroke="#434343" strokeWidth="1.5" strokeLinecap="round" strokeLinejoin="round"/>
<path d="M16.2875 13.7111C17.6512 14.4475 18.333 14.8157 18.333 15.4166C18.333 16.0176 17.6512 16.3858 16.2875 17.1221L15.3589 17.6236C14.3117 18.1891 13.7881 18.4719 13.5363 18.2663C12.9197 17.7628 13.8803 16.4634 14.1166 16.0031C14.3561 15.5366 14.3518 15.2882 14.1166 14.8302C13.8803 14.3699 12.9197 13.0705 13.5363 12.567C13.7881 12.3614 14.3117 12.6441 15.3589 13.2096L16.2875 13.7111Z" stroke="#434343" strokeWidth="1.5"/>
<path d="M10.8554 18.2903C10.5743 18.319 10.289 18.3337 10.0003 18.3337C5.39795 18.3337 1.66699 14.6027 1.66699 10.0003C1.66699 5.39795 5.39795 1.66699 10.0003 1.66699C14.6027 1.66699 18.3337 5.39795 18.3337 10.0003C18.3337 10.5711 18.2762 11.1285 18.167 11.667" stroke="#434343" strokeWidth="1.5" strokeLinecap="round"/>
</g>
<defs>
<clipPath id="clip0_7495_4591">
<rect width="20" height="20" fill="white"/>
</clipPath>
</defs>
</svg>
